<svg xmlns="http://www.w3.org/2000/svg" width="512" height="512" viewBox="0 0 512 512">
    
  <defs>
    <linearGradient id="bg" x1="0" y1="0" x2="512" y2="512" gradientUnits="userSpaceOnUse">
      <stop offset="0" stop-color="#a3e635"/>
      <stop offset="0.55" stop-color="#65a30d"/>
      <stop offset="1" stop-color="#3f6212"/>
    </linearGradient>
    <radialGradient id="glow" cx="0.3" cy="0.25" r="0.9">
      <stop offset="0" stop-color="#ffffff" stop-opacity="0.30"/>
      <stop offset="0.6" stop-color="#ffffff" stop-opacity="0"/>
    </radialGradient>
    <radialGradient id="ballgrad" cx="0.4" cy="0.35" r="0.75">
      <stop offset="0" stop-color="#ffffff"/>
      <stop offset="1" stop-color="#e7f3d4"/>
    </radialGradient>
    <clipPath id="ballclip"><circle cx="256" cy="256" r="150"/></clipPath>
    <filter id="shadow" x="-20%" y="-20%" width="140%" height="140%">
      <feDropShadow dx="0" dy="10" stdDeviation="14" flood-color="#1a2e05" flood-opacity="0.35"/>
    </filter>
  </defs>
    <rect width="512" height="512" rx="112" fill="url(#bg)"/><rect width="512" height="512" rx="112" fill="url(#glow)"/>
    <g filter="url(#shadow)">
    <g clip-path="url(#ballclip)">
      <circle cx="256" cy="256" r="150" fill="url(#ballgrad)"/>
      <polygon points="273.6,115.7 284.5,149.3 256.0,170.0 227.5,149.3 238.4,115.7" fill="#16310b"/>
<polygon points="394.9,229.4 366.3,250.2 337.8,229.4 348.7,195.9 384.0,195.9" fill="#16310b"/>
<polygon points="324.2,379.8 295.7,359.1 306.5,325.6 341.8,325.6 352.7,359.1" fill="#16310b"/>
<polygon points="159.3,359.1 170.2,325.6 205.5,325.6 216.3,359.1 187.8,379.8" fill="#16310b"/>
<polygon points="128.0,195.9 163.3,195.9 174.2,229.4 145.7,250.2 117.1,229.4" fill="#16310b"/>
      <line x1="256.0" y1="210.0" x2="256.0" y2="116.0" stroke="#16310b" stroke-width="9" stroke-linecap="round"/>
<line x1="299.7" y1="241.8" x2="389.1" y2="212.7" stroke="#16310b" stroke-width="9" stroke-linecap="round"/>
<line x1="283.0" y1="293.2" x2="338.3" y2="369.3" stroke="#16310b" stroke-width="9" stroke-linecap="round"/>
<line x1="229.0" y1="293.2" x2="173.7" y2="369.3" stroke="#16310b" stroke-width="9" stroke-linecap="round"/>
<line x1="212.3" y1="241.8" x2="122.9" y2="212.7" stroke="#16310b" stroke-width="9" stroke-linecap="round"/>
      <polygon points="256.0,210.0 299.7,241.8 283.0,293.2 229.0,293.2 212.3,241.8" fill="#16310b"/>
    </g>
    <circle cx="256" cy="256" r="150" fill="none" stroke="#16310b" stroke-width="4" stroke-opacity="0.35"/></g>
  </svg>